<svg width="175" height="38" viewBox="0 0 175 38" fill="none" xmlns="http://www.w3.org/2000/svg">
<path fill-rule="evenodd" clip-rule="evenodd" d="M0.208336 0H38.5045V38H0.208336V0ZM4.99536 32.7586V5.24138H33.7175V32.7586H22.3483V26.2069H16.3645V32.7586H4.99536ZM104.881 29.1091C102.936 29.0622 101.376 28.3584 100.202 26.9977C99.0281 25.637 98.3639 23.8165 98.2095 21.5362C98.1239 20.4101 98.2053 19.087 98.4536 17.5668C98.702 16.0372 99.1436 14.6296 99.7779 13.344C100.412 12.0584 101.205 10.9886 102.156 10.1347C103.75 8.69892 105.585 8.0045 107.658 8.05141C108.935 8.07959 110.05 8.40337 111.001 9.02271C111.961 9.63267 112.728 10.5147 113.302 11.6689C113.876 12.8232 114.211 14.137 114.305 15.6103C114.373 16.6519 114.314 17.8389 114.125 19.1715C113.945 20.4946 113.606 21.7614 113.109 22.972C112.621 24.1731 111.987 25.2335 111.207 26.1531C110.427 27.0728 109.505 27.8047 108.442 28.349C107.389 28.8839 106.201 29.1372 104.881 29.1091ZM109.895 15.568C109.81 13.222 108.979 12.0021 107.401 11.9083C106.184 11.8426 105.177 12.3727 104.38 13.4988C103.583 14.6155 103.056 16.2671 102.799 18.4536C102.636 19.8049 102.576 20.8512 102.619 21.5925C102.705 23.976 103.545 25.2007 105.139 25.2663C106.184 25.3227 107.084 24.9144 107.839 24.0417C108.593 23.1596 109.137 21.8834 109.471 20.2131C109.805 18.5333 109.947 16.985 109.895 15.568ZM63.7675 28.8276H68.1637L71.4165 8.33294H56.1052L52.8656 28.8276H57.2625L59.9103 12.1476H66.4027L63.7675 28.8276ZM93.5703 8.33294H89.0579L80.6633 20.9873L82.6816 8.33294H78.2721L75.0194 28.8276H79.5449L87.9395 16.1873L85.9212 28.8276H90.3307L93.5703 8.33294ZM129.432 28.8276H133.803L137.056 8.33294H132.672L131.387 16.4689H124.959L126.257 8.33294H121.848L118.608 28.8276H123.004L124.367 20.2694H130.782L129.432 28.8276ZM153.032 20.1427H146.154L145.37 25.0271H153.508L152.904 28.8276H140.369L143.609 8.33294H156.169L155.565 12.1476H147.414L146.72 16.4689H153.61L153.032 20.1427ZM162.876 28.8276L163.981 21.874L167.067 21.8881C168.498 21.8881 169.788 21.6207 170.936 21.0858C172.094 20.5509 173.024 19.7767 173.726 18.7633C174.429 17.7498 174.832 16.5533 174.935 15.1739C175.08 13.1563 174.554 11.5141 173.353 10.2473C172.162 8.98045 170.525 8.34703 168.442 8.34703L161.719 8.33294L158.479 28.8276H162.876ZM167.234 18.0876L164.586 18.0594L165.524 12.1476L168.597 12.1616C169.137 12.1992 169.57 12.3868 169.895 12.7247C170.23 13.0531 170.431 13.5036 170.5 14.076C170.619 15.1927 170.384 16.1357 169.792 16.9052C169.201 17.6653 168.348 18.0594 167.234 18.0876Z" fill="#607CE6"/>
</svg>
