<svg width="16" height="16" viewBox="0 0 16 16" fill="none" xmlns="http://www.w3.org/2000/svg">
<path d="M12.1998 9.99997C11.0998 9.89997 10.4998 11.4 9.69983 11.8C8.39983 12.5 5.99983 9.99997 5.99983 9.99997C5.99983 9.99997 3.49983 7.59997 4.09983 6.29997C4.59983 5.49997 6.09983 4.89997 5.99983 3.79997C5.89983 2.79997 3.69983 -0.800033 2.59983 0.199967C0.19983 2.39997 -0.000169929 3.29997 -0.000169929 5.09997C-0.10017 8.19997 3.89983 12.1 3.89983 12.1C4.29983 12.5 7.79983 16.1 10.8998 16C12.6998 16 13.5998 15.8 15.7998 13.4C16.7998 12.3 13.2998 10.1 12.1998 9.99997Z" fill="#607CE6"/>
</svg>
